# xmcd CD database file
# Copyright (C) 1995-1998 Ti Kan
#
# Track frame offsets:
#	150
#	22478
#	42560
#	61171
#	78434
#	102367
#	122572
#	139119
#	163057
#	176810
#	196093
#
# Disc length: 2889 seconds
#
# Revision: 2
# Processed by: cddbd v1.4PL0 Copyright (c) Steve Scherf et al.
# Submitted via: CDex 1.30Release
#
DISCID=9a0b470b
DTITLE=Cleveland Fats - The Other Side of Midnight
DYEAR=1997
DGENRE=Blues
TTITLE0=I Wanna Know
TTITLE1=Worst Kind of Fool
TTITLE2=Just Like a Woman
TTITLE3=Good Morning Mr. Blues
TTITLE4=The Other Side of Midnight
TTITLE5=My Past Life
TTITLE6=Have Mercy
TTITLE7=That's Alright
TTITLE8=Hey Bob-A-Ree-Bop
TTITLE9=Your Time to Cry
TTITLE10=Love Affair Blues
EXTD=YEAR: 1997 ID3G:   0
EXTT0=
EXTT1=
EXTT2=
EXTT3=
EXTT4=
EXTT5=
EXTT6=
EXTT7=
EXTT8=
EXTT9=
EXTT10=
PLAYORDER=
